<?xml version="1.0" encoding="UTF-8"?><svg id="Layer_1" xmlns="http://www.w3.org/2000/svg" viewBox="0 0 1115.05 441"><defs><style>.cls-1,.cls-2,.cls-3,.cls-4,.cls-5{stroke-width:0px;}.cls-2{fill:#78111a;}.cls-3{fill:#77111a;}.cls-4{fill:#441115;}.cls-5{fill:#c7314c;}.cls-6{font-family:Petrona-Regular, Petrona;font-size:101.83px;font-variation-settings:'wght' 400;letter-spacing:.24em;}</style></defs><path class="cls-1" d="M160.95,73.25c-3.37-3.76-7.13-7.08-11.29-9.95-4.16-2.87-8.62-5.25-13.37-7.13s-9.91-3.32-15.45-4.31c-5.55-.99-11.49-1.49-17.83-1.49-20.61,0-35.62,3.91-45.02,11.73-9.41,7.81-14.12,18.35-14.12,31.6,0,8.91,2.13,15.98,6.39,21.22,4.26,5.24,10.95,9.45,20.06,12.61,9.11,3.17,20.9,6.23,35.36,9.19,15.25,3.17,28.43,6.88,39.53,11.13,11.09,4.25,19.66,10.05,25.71,17.36,6.04,7.32,9.06,17.21,9.06,29.67,0,9.3-1.78,17.46-5.35,24.48-3.56,7.03-8.72,12.81-15.45,17.36-6.74,4.55-14.71,8.01-23.92,10.39-9.21,2.37-19.47,3.56-30.76,3.56s-21.3-1.19-31.21-3.56c-9.91-2.38-19.22-5.84-27.94-10.4s-16.84-10.4-24.37-17.53l8.02-12.18c4.36,4.75,9.26,8.97,14.71,12.63,5.45,3.67,11.39,6.79,17.83,9.36,6.43,2.58,13.32,4.6,20.65,6.09,7.33,1.49,14.96,2.23,22.88,2.23,18.43,0,32.84-3.41,43.24-10.24,10.4-6.82,15.6-16.96,15.6-30.41,0-9.29-2.38-16.81-7.13-22.55s-12.09-10.44-21.99-14.1c-9.91-3.66-22.29-7.07-37.15-10.24-14.86-3.17-27.49-6.73-37.89-10.68-10.4-3.96-18.23-9.3-23.48-16.02s-7.87-15.83-7.87-27.3c0-12.66,3.12-23.4,9.36-32.2,6.24-8.81,15.01-15.48,26.3-20.03,11.29-4.55,24.27-6.83,38.93-6.83,9.11,0,17.58.89,25.41,2.67,7.82,1.78,15.05,4.51,21.69,8.17,6.64,3.67,12.83,8.28,18.57,13.82l-7.73,11.89h.02Z"/><path class="cls-1" d="M604.08,249.18V67.6l-82.92,142.05h-10.11l-82.92-142.05v181.58h-15.15V38.18h15.15l87.97,150.97,87.97-150.97h15.15v211h-15.15,0Z"/><path class="cls-1" d="M838.32,249.18V67.6l-82.92,142.05h-10.11l-82.92-142.05v181.58h-15.15V38.18h15.15l87.97,150.97,87.97-150.97h15.15v211h-15.15.01Z"/><path class="cls-1" d="M881.99,249.18V38.18h15.15v211h-15.15Z"/><path class="cls-1" d="M1095.36,51.85h-77.27v197.33h-15.16V51.85h-77.27v-13.67h169.69v13.67h.01Z"/><path class="cls-1" d="M296.77,250.67c-16.84,0-30.91-2.97-42.2-8.92-11.29-5.94-20.31-14.01-27.04-24.22-6.74-10.2-11.59-21.64-14.56-34.33-2.97-12.68-4.46-25.65-4.46-38.93V38.18h15.16v106.1c0,11.49,1.19,22.79,3.57,33.88,2.38,11.1,6.29,21.05,11.74,29.87,5.45,8.82,12.88,15.8,22.29,20.95s21.15,7.73,35.22,7.73,26.1-2.67,35.51-8.02,16.84-12.43,22.29-21.25c5.45-8.81,9.31-18.72,11.59-29.72,2.27-11,3.42-22.14,3.42-33.43V38.18h15.15v106.1c0,14.07-1.54,27.49-4.61,40.27-3.07,12.78-8.08,24.12-15.01,34.03-6.94,9.91-15.95,17.73-27.04,23.48-11.1,5.75-24.77,8.62-41.01,8.62h0Z"/><path class="cls-2" d="M315.71,228.57c.38-.11.76-.23,1.14-.35-.38.12-.77.24-1.14.35Z"/><path class="cls-2" d="M342.25,150.18c1.72-39.01,11.97-49.19,21.2-50.17,0-30.18.02-54.43.02-54.43-9.77,8.54-23.53,26.48-36.52,63.98.58,33.86-3.47,59.96-10.88,76.95-16.19,37.16-45.04,38.96-56.41,34.34,5.98,3.02,22.19,10.26,39.96,10,20.03-6.5,40.25-26.66,42.63-80.68h0Z"/><path class="cls-4" d="M258.32,220.08c6.83,5,39.91,7.37,57.74-33.56,7.41-17.01,11.46-43.11,10.88-76.99-4.42,8.99-19.57,82.88-61.55,73.33-15.7-3.57-25.35-2.64-31.19.07,0,0,4.59,22.86,24.11,37.15h0Z"/><path class="cls-5" d="M363.45,100.01c-9.23.98-19.48,11.16-21.2,50.17-2.38,54.07-22.63,74.22-42.68,80.7,0,0,47.97,2.61,60.58-55.18,0,0,3.32-10.54,3.32-33.77,0-25.81-.02-41.92-.02-41.92h0Z"/><path class="cls-3" d="M19.69,290.7s762-8.18,1075.67,0c0,0-1075.93,6.43-1075.67,0h0Z"/><text class="cls-6" transform="translate(22.35 392)"><tspan x="0" y="0">WINE TASTINGS</tspan></text></svg>